<svg width="23" height="23" viewBox="0 0 23 23" fill="none" xmlns="http://www.w3.org/2000/svg">
<path d="M23 11.7551C23 10.8096 22.9217 10.1196 22.7523 9.40405H11.7347V13.6718H18.2018C18.0714 14.7324 17.3674 16.3296 15.8027 17.4028L15.7808 17.5457L19.2643 20.1904L19.5057 20.214C21.7222 18.2079 23 15.2562 23 11.7551Z" fill="#4285F4"/>
<path d="M11.734 23C14.9023 23 17.5622 21.9777 19.5049 20.2145L15.802 17.4033C14.8111 18.0805 13.4812 18.5533 11.734 18.5533C8.63091 18.5533 5.99716 16.5472 5.05831 13.7744L4.92069 13.7859L1.29847 16.5331L1.2511 16.6622C3.18077 20.4188 7.14447 23 11.734 23Z" fill="#34A853"/>
<path d="M5.05888 13.7744C4.81116 13.0588 4.66779 12.2921 4.66779 11.4999C4.66779 10.7077 4.81116 9.94102 5.04585 9.22548L5.03929 9.07309L1.37166 6.28174L1.25166 6.33767C0.456352 7.89658 0 9.64716 0 11.4999C0 13.3527 0.456352 15.1032 1.25166 16.6621L5.05888 13.7744Z" fill="#FBBC05"/>
<path d="M11.7341 4.44662C13.9376 4.44662 15.4239 5.37939 16.2715 6.15889L19.5833 2.98999C17.5493 1.13722 14.9024 0 11.7341 0C7.1445 0 3.18078 2.58108 1.2511 6.3377L5.04529 9.22551C5.99719 6.45275 8.63095 4.44662 11.7341 4.44662Z" fill="#EB4335"/>
</svg>
