<svg width="31" height="31" viewBox="0 0 31 31" fill="none" xmlns="http://www.w3.org/2000/svg">
<path d="M31 28.5781C31 29.9157 29.9157 31 28.5781 31H2.42188C1.08427 31 0 29.9157 0 28.5781V2.42188C0 1.08427 1.08427 0 2.42188 0H28.5781C29.9157 0 31 1.08427 31 2.42188V28.5781Z" fill="#FFE812"/>
<path d="M15.5 4.35938C8.54462 4.35938 2.90625 8.80509 2.90625 14.2891C2.90625 17.8346 5.26346 20.9456 8.80933 22.7023C8.61643 23.3676 7.56969 26.9822 7.52804 27.2662C7.52804 27.2662 7.50297 27.4796 7.64114 27.5609C7.7793 27.6423 7.94181 27.5791 7.94181 27.5791C8.33803 27.5238 12.5365 24.5746 13.2632 24.0625C13.9891 24.1653 14.7366 24.2188 15.5 24.2188C22.4554 24.2188 28.0938 19.7732 28.0938 14.2891C28.0938 8.80509 22.4554 4.35938 15.5 4.35938Z" fill="black"/>
<path d="M8.53711 17.7554C8.13641 17.7554 7.81055 17.4442 7.81055 17.0615V12.7451H6.67687C6.28368 12.7451 5.96387 12.4259 5.96387 12.0337C5.96387 11.6415 6.2838 11.3223 6.67687 11.3223H10.3974C10.7905 11.3223 11.1104 11.6415 11.1104 12.0337C11.1104 12.4259 10.7904 12.7451 10.3974 12.7451H9.26367V17.0615C9.26367 17.4442 8.93781 17.7554 8.53711 17.7554ZM14.9081 17.7459C14.6051 17.7459 14.3733 17.6229 14.3035 17.425L13.9437 16.4832L11.7282 16.483L11.3682 17.4255C11.2985 17.623 11.0669 17.7459 10.7639 17.7459C10.6045 17.7461 10.447 17.7119 10.3021 17.6457C10.1018 17.5533 9.90922 17.2992 10.1299 16.6139L11.8678 12.0395C11.9902 11.6916 12.3621 11.3332 12.8353 11.3224C13.3099 11.333 13.6818 11.6916 13.8044 12.0402L15.5417 16.6126C15.7628 17.2995 15.5702 17.5536 15.3699 17.6458C15.225 17.7119 15.0674 17.746 14.9081 17.7459C14.9081 17.7459 14.908 17.7459 14.9081 17.7459ZM13.5617 15.1962L12.8359 13.1346L12.1102 15.1962H13.5617ZM16.7109 17.6494C16.3269 17.6494 16.0146 17.3506 16.0146 16.9834V12.0488C16.0146 11.6481 16.3474 11.3223 16.7563 11.3223C17.1653 11.3223 17.498 11.6481 17.498 12.0488V16.3174H19.042C19.426 16.3174 19.7383 16.6162 19.7383 16.9834C19.7383 17.3506 19.426 17.6494 19.042 17.6494H16.7109ZM20.7475 17.7459C20.3468 17.7459 20.0209 17.4201 20.0209 17.0194V12.0488C20.0209 11.6481 20.3468 11.3223 20.7475 11.3223C21.1482 11.3223 21.474 11.6481 21.474 12.0488V13.6105L23.5011 11.5833C23.6054 11.4791 23.7487 11.4217 23.9041 11.4217C24.0855 11.4217 24.2677 11.4999 24.4041 11.6363C24.5314 11.7634 24.6073 11.927 24.6178 12.0969C24.6283 12.2683 24.5713 12.4253 24.4574 12.5393L22.8017 14.1947L24.5901 16.5641C24.6479 16.6401 24.69 16.7268 24.7139 16.8192C24.7378 16.9116 24.7432 17.0078 24.7296 17.1023C24.7167 17.1969 24.6851 17.2879 24.6367 17.3701C24.5883 17.4524 24.5241 17.5242 24.4477 17.5815C24.3221 17.677 24.1685 17.7285 24.0107 17.7281C23.8981 17.7286 23.787 17.7028 23.6862 17.6526C23.5854 17.6025 23.4978 17.5294 23.4303 17.4393L21.7264 15.1816L21.4743 15.4338V17.019C21.4741 17.2117 21.3974 17.3965 21.2612 17.5327C21.1249 17.669 20.9402 17.7457 20.7475 17.7459Z" fill="#FFE812"/>
</svg>
